<svg xmlns="http://www.w3.org/2000/svg" xmlns:xlink="http://www.w3.org/1999/xlink" viewBox="0 0 848.3 403.5"><defs><clipPath id="clip-path"><path d="M84.3,268.3c32.8,7.5,87.2,12.6,130-19.6C265.1,210.3,498.6,24.9,498.6,24.9S450.8,81.6,396.8,157.4c-27.2,22.9-73.4,60.3-115.6,86.1-93,57-161.6,40.8-196.9,24.8Z" fill="none" clip-rule="evenodd"/></clipPath><clipPath id="clip-path-2"><path d="M282.2,248.7c64.7-39.6,139.7-106.3,139.7-106.3s-49.1,64.3-92.2,119.5c-33.4,19.7-111.3,63.6-154.6,60.5-29.9-2.1-70-29.8-92.7-49.4,35,16.2,106,33.1,199.8-24.3Z" fill="none" clip-rule="evenodd"/></clipPath><clipPath id="clip-path-3"><path d="M176.1,327.7c53.4,4.3,169.2-69.1,169.2-69.1s-70,97.9-161.6,128.9c-16.6-.4-74-2.4-92-25.9s-29.9-56.7-28.3-98.3c15.9,14.9,68.1,60.8,112.7,64.4Z" fill="none" clip-rule="evenodd"/></clipPath><clipPath id="clip-path-4"><path d="M186.4,59.7S65.4,161.1,58.7,257.5c-3.3,47,9.6,81.8,29.9,108.2s94.7,27,94.7,27c-37,12.4-84.6,2.2-117.4-8.4-35-11.4-79.3-90.7-52.5-159.7,27.8-71.7,173-164.9,173-164.9Z" fill="none" clip-rule="evenodd"/></clipPath><clipPath id="clip-path-5"><path d="M104.1,159.2c59.6-47.6,220.2-154,220.2-154S239.8,44.5,166.5,85.1c-17.7,17.5-41.9,43.8-62.4,74.1Z" fill="none" clip-rule="evenodd"/></clipPath><clipPath id="clip-path-6"><path d="M231.3,235.6l-17,13.1c-42.8,32.2-97.2,27.1-130,19.6h0c28.8,13,79.7,26.2,147.9-.2a134.7,134.7,0,0,0-.9-32.5Z" fill="none" clip-rule="evenodd"/></clipPath><clipPath id="clip-path-7"><path d="M220.6,314.7c-16.9,5.4-32.7,8.7-45.5,7.7-29.9-2.1-70-29.8-92.7-49.4,28.4,13.1,80.5,26.8,149.2.8a159.9,159.9,0,0,1-11,40.9Z" fill="none" clip-rule="evenodd"/></clipPath><clipPath id="clip-path-8"><path d="M217.7,321.1c-15.6,4.8-30,7.5-41.6,6.6-44.6-3.6-96.8-49.5-112.7-64.4-1.6,41.6,9.6,74,28.3,98.3,7.2,9.5,20.9,15.4,35.7,19.2l5.3.3c39.1,1.5,68.5-25.3,85-60Z" fill="none" clip-rule="evenodd"/></clipPath><clipPath id="clip-path-9"><path d="M80.3,188.2c-11.7,22.4-20,46-21.6,69.3-3.3,47,9.6,81.8,29.9,108.2,3.7,4.9,9.1,8.9,15.4,12.2-62.4-12.3-81.4-55.6-81.4-94.4,0-54.4,28.1-81.2,57.7-95.3Z" fill="none" clip-rule="evenodd"/></clipPath></defs><title>logo2020Asset 1</title><g id="Layer_2" data-name="Layer 2"><g id="Layer_1-2" data-name="Layer 1"><path d="M401.1,319.6c-7.3-7.3-10.9-16.9-10.9-29s3.9-21.6,11.6-28.7a39.7,39.7,0,0,1,27.9-10.7c13.6,0,25,5.7,34.1,17.1l18-20.4q-21.4-24.3-53.4-24.3-28.5,0-48.3,19.3c-13.2,12.8-19.8,28.9-19.8,48.1s6.5,35.1,19.4,47.7,29.4,18.9,49.3,18.9,37.3-8.2,52.1-24.8l-18.6-19.1c-9,11.2-20.6,16.9-34.8,16.9a36.3,36.3,0,0,1-26.6-11ZM523,298.1V226.5H494V299c0,18.7,5.3,33.1,15.7,43.3s23.8,15.2,40,15.2,29.5-5.1,39.8-15.2,15.6-24.5,15.6-43.3V226.5H576.2v71.6q0,15.6-7.2,24.6c-4.7,6-11.2,9-19.3,9s-14.7-3-19.5-9-7.2-14.2-7.2-24.6Z" fill="#9b2220"/><path d="M724.3,251V226H621.9v25h36.7V355.6h29V251Zm43.4,68.1c-7.3-7.3-11-17-11-29.1s3.9-21.6,11.6-28.7a39.7,39.7,0,0,1,27.9-10.7c13.6,0,25,5.7,34.1,17.1l18-20.4Q826.9,223,794.9,223q-28.5,0-48.3,19.3c-13.1,12.8-19.7,28.9-19.7,48.1s6.4,35.1,19.4,47.8,29.3,18.9,49.3,18.9,37.3-8.3,52-24.9L829,313.1c-9,11.3-20.6,16.9-34.8,16.9a36,36,0,0,1-26.5-10.9Z" fill="#9b2220"/><g clip-path="url(#clip-path)"><path d="M79.2,19.8H503.7V288.5H79.2Z" fill="#e28884" fill-rule="evenodd"/></g><g clip-path="url(#clip-path-2)"><path d="M36.1,131.1H385.9V321.7H36.1Z" fill="#d75d56" fill-rule="evenodd"/></g><g clip-path="url(#clip-path-3)"><path d="M58.1,253.4H350.4V392.6H58.1Z" fill="#c52026" fill-rule="evenodd"/></g><g clip-path="url(#clip-path-4)"><path d="M0,54.6H191.6V403.5H0Z" fill="#ae1f24" fill-rule="evenodd"/></g><g clip-path="url(#clip-path-5)"><path d="M99,0H329.4V164.3H99Z" fill="#e28884" fill-rule="evenodd"/></g><g clip-path="url(#clip-path-6)"><path d="M79.2,230.5H237.9v58H79.2Z" fill="#ecb8b5" fill-rule="evenodd"/></g><g clip-path="url(#clip-path-7)"><path d="M77.2,267.8H236.7v59.9H77.2Z" fill="#e28884" fill-rule="evenodd"/></g><g clip-path="url(#clip-path-8)"><path d="M58.1,258.1H222.8V386.3H58.1Z" fill="#d75d56" fill-rule="evenodd"/></g><g clip-path="url(#clip-path-9)"><path d="M17.5,183h91.6V383H17.5Z" fill="#d75d56" fill-rule="evenodd"/></g></g></g></svg>