<svg xmlns="http://www.w3.org/2000/svg" xmlns:xlink="http://www.w3.org/1999/xlink" viewBox="0 0 136.8 65.1"><defs><clipPath id="clip-path"><path d="M13.6,43.3c5.3,1.2,14.1,2,20.9-3.2S80.4,4,80.4,4,72.7,13.2,64,25.4A174.9,174.9,0,0,1,45.3,39.3c-14.9,9.2-26,6.5-31.7,4Z" fill="none" clip-rule="evenodd"/></clipPath><clipPath id="clip-path-2"><path d="M45.5,40.1C55.9,33.7,68,23,68,23L53.2,42.2c-5.4,3.2-18,10.3-25,9.8-4.8-.4-11.3-4.8-14.9-8,5.6,2.6,17.1,5.4,32.2-3.9Z" fill="none" clip-rule="evenodd"/></clipPath><clipPath id="clip-path-3"><path d="M28.4,52.8c8.6.7,27.3-11.1,27.3-11.1S44.4,57.5,29.6,62.5c-2.7-.1-11.9-.4-14.8-4.2S10,49.2,10.2,42.5c2.6,2.4,11,9.8,18.2,10.3Z" fill="none" clip-rule="evenodd"/></clipPath><clipPath id="clip-path-4"><path d="M30.1,9.6S10.5,26,9.5,41.5C8.9,49.1,11,54.7,14.3,59s15.3,4.3,15.3,4.3c-6,2-13.7.4-19-1.3S-2.2,47.3,2.2,36.2,30.1,9.6,30.1,9.6Z" fill="none" clip-rule="evenodd"/></clipPath><clipPath id="clip-path-5"><path d="M16.8,25.7C26.4,18,52.3.8,52.3.8S38.7,7.2,26.9,13.7a83.1,83.1,0,0,0-10.1,12Z" fill="none" clip-rule="evenodd"/></clipPath><clipPath id="clip-path-6"><path d="M37.3,38c-1.1.8-2,1.6-2.8,2.1-6.8,5.2-15.6,4.4-20.9,3.2h0c4.6,2.1,12.8,4.2,23.8-.1a18.1,18.1,0,0,0-.1-5.2Z" fill="none" clip-rule="evenodd"/></clipPath><clipPath id="clip-path-7"><path d="M35.6,50.7A21.4,21.4,0,0,1,28.2,52c-4.8-.4-11.3-4.8-14.9-8,4.6,2.1,13,4.3,24,.2a21.5,21.5,0,0,1-1.7,6.5Z" fill="none" clip-rule="evenodd"/></clipPath><clipPath id="clip-path-8"><path d="M35.1,51.8a17,17,0,0,1-6.7,1c-7.2-.5-15.6-7.9-18.2-10.3-.2,6.7,1.6,11.9,4.6,15.8,1.2,1.5,3.4,2.5,5.7,3.1h.9c6.3.2,11-4.1,13.7-9.7Z" fill="none" clip-rule="evenodd"/></clipPath><clipPath id="clip-path-9"><path d="M13,30.3A28.6,28.6,0,0,0,9.5,41.5C8.9,49.1,11,54.7,14.3,59a6.9,6.9,0,0,0,2.5,1.9C6.7,58.9,3.7,52,3.7,45.7c0-8.8,4.5-13.1,9.3-15.4Z" fill="none" clip-rule="evenodd"/></clipPath></defs><title>logo2020Asset 3</title><g id="Layer_2" data-name="Layer 2"><g id="Layer_1-2" data-name="Layer 1"><path d="M64.7,51.5a6,6,0,0,1-1.8-4.6,6,6,0,0,1,1.9-4.7,6.4,6.4,0,0,1,4.5-1.7,6.7,6.7,0,0,1,5.5,2.8L77.7,40a11.1,11.1,0,0,0-8.6-3.9,10.6,10.6,0,0,0-7.8,3.1,10.3,10.3,0,0,0-3.2,7.7,10.2,10.2,0,0,0,3.1,7.7,10.9,10.9,0,0,0,8,3.1,11.2,11.2,0,0,0,8.4-4l-3-3.1A6.9,6.9,0,0,1,69,53.3a5.8,5.8,0,0,1-4.3-1.8Zm19.6-3.4V36.5H79.7V48.2c0,3,.8,5.4,2.5,7a8.9,8.9,0,0,0,6.4,2.4,9.2,9.2,0,0,0,6.5-2.4,9.5,9.5,0,0,0,2.5-7V36.5H92.9V48.1A6.5,6.5,0,0,1,91.8,52a3.9,3.9,0,0,1-3.2,1.5A3.7,3.7,0,0,1,85.5,52a5.9,5.9,0,0,1-1.2-3.9Z" fill="#9d2320"/><path d="M116.8,40.5V36.4H100.3v4.1h5.9V57.3h4.7V40.5Zm7,10.9a6,6,0,0,1-1.8-4.6,6,6,0,0,1,1.9-4.7,6.4,6.4,0,0,1,4.5-1.7,6.7,6.7,0,0,1,5.5,2.8l2.9-3.3a11.1,11.1,0,0,0-8.6-3.9,10.6,10.6,0,0,0-7.8,3.1,10.3,10.3,0,0,0-3.2,7.7,10.2,10.2,0,0,0,3.1,7.7,10.9,10.9,0,0,0,8,3.1,11.2,11.2,0,0,0,8.4-4l-3-3.1a6.9,6.9,0,0,1-5.6,2.7,5.8,5.8,0,0,1-4.3-1.8Z" fill="#9d2320"/><g clip-path="url(#clip-path)"><path d="M12.8,3.2H81.2V46.5H12.8Z" fill="#e38a85" fill-rule="evenodd"/></g><g clip-path="url(#clip-path-2)"><path d="M5.8,21.1H62.2V51.9H5.8Z" fill="#d85d56" fill-rule="evenodd"/></g><g clip-path="url(#clip-path-3)"><path d="M9.4,40.9H56.5V63.3H9.4Z" fill="#c62026" fill-rule="evenodd"/></g><g clip-path="url(#clip-path-4)"><path d="M0,8.8H30.9V65.1H0Z" fill="#af1f24" fill-rule="evenodd"/></g><g clip-path="url(#clip-path-5)"><path d="M16,0H53.1V26.5H16Z" fill="#e38a85" fill-rule="evenodd"/></g><g clip-path="url(#clip-path-6)"><path d="M12.8,37.2H38.4v9.3H12.8Z" fill="#edb9b7" fill-rule="evenodd"/></g><g clip-path="url(#clip-path-7)"><path d="M12.5,43.2H38.2v9.6H12.5Z" fill="#e38a85" fill-rule="evenodd"/></g><g clip-path="url(#clip-path-8)"><path d="M9.4,41.6H35.9V62.3H9.4Z" fill="#d85d56" fill-rule="evenodd"/></g><g clip-path="url(#clip-path-9)"><path d="M2.8,29.5H17.6V61.8H2.8Z" fill="#d85d56" fill-rule="evenodd"/></g></g></g></svg>