<svg id="Layer_1" data-name="Layer 1" xmlns="http://www.w3.org/2000/svg" xmlns:xlink="http://www.w3.org/1999/xlink" viewBox="0 0 328.1 282.4"><defs><clipPath id="clip-path" transform="translate(0 -11.4)"><path d="M13.6,229.5c5.3,1.2,14,2,20.9-3.2s45.9-36.1,45.9-36.1-7.7,9.2-16.4,21.4a174.9,174.9,0,0,1-18.7,13.9c-15,9.2-26,6.5-31.7,4Zm0,0" fill="none" clip-rule="evenodd"/></clipPath><clipPath id="clip-path-2" transform="translate(0 -11.4)"><path d="M45.5,226.3C55.9,219.9,68,209.2,68,209.2L53.2,228.4c-5.4,3.2-18,10.3-25,9.8-4.8-.3-11.3-4.8-14.9-8,5.6,2.6,17.1,5.4,32.2-3.9Zm0,0" fill="none" clip-rule="evenodd"/></clipPath><clipPath id="clip-path-3" transform="translate(0 -11.4)"><path d="M28.4,239c8.6.7,27.3-11.1,27.3-11.1s-11.3,15.8-26.1,20.8c-2.7-.1-11.9-.4-14.8-4.2s-4.8-9.1-4.6-15.8c2.6,2.4,11,9.8,18.2,10.3Zm0,0" fill="none" clip-rule="evenodd"/></clipPath><clipPath id="clip-path-4" transform="translate(0 -11.4)"><path d="M30.1,195.8S10.5,212.2,9.5,227.7c-.6,7.6,1.5,13.2,4.8,17.5s15.3,4.3,15.3,4.3c-6,2-13.7.4-19-1.3s-12.8-14.7-8.5-25.8,28-26.6,28-26.6Zm0,0" fill="none" clip-rule="evenodd"/></clipPath><clipPath id="clip-path-5" transform="translate(0 -11.4)"><path d="M16.8,211.9c9.6-7.7,35.5-24.9,35.5-24.9s-13.6,6.4-25.5,12.9a90.2,90.2,0,0,0-10,12Zm0,0" fill="none" clip-rule="evenodd"/></clipPath><clipPath id="clip-path-6" transform="translate(0 -11.4)"><path d="M37.3,224.2l-2.8,2.1c-6.9,5.2-15.6,4.4-20.9,3.2h0c4.6,2.1,12.8,4.2,23.8-.1a18.1,18.1,0,0,0-.1-5.2Zm0,0" fill="none" clip-rule="evenodd"/></clipPath><clipPath id="clip-path-7" transform="translate(0 -11.4)"><path d="M35.6,236.9a21.8,21.8,0,0,1-7.4,1.3c-4.8-.3-11.3-4.8-14.9-8,4.5,2.1,12.9,4.3,24,.2a29.7,29.7,0,0,1-1.7,6.5Zm0,0" fill="none" clip-rule="evenodd"/></clipPath><clipPath id="clip-path-8" transform="translate(0 -11.4)"><path d="M35.1,238a17,17,0,0,1-6.7,1c-7.2-.5-15.6-7.9-18.2-10.3-.2,6.7,1.6,11.9,4.6,15.8,1.1,1.5,3.3,2.5,5.7,3.1h.9c6.3.2,11-4.1,13.7-9.7Zm0,0" fill="none" clip-rule="evenodd"/></clipPath><clipPath id="clip-path-9" transform="translate(0 -11.4)"><path d="M12.9,216.5a30.1,30.1,0,0,0-3.4,11.2c-.6,7.6,1.5,13.2,4.8,17.5a6.2,6.2,0,0,0,2.5,1.9c-10.1-1.9-13.2-8.9-13.2-15.2,0-8.8,4.6-13.1,9.3-15.4Zm0,0" fill="none" clip-rule="evenodd"/></clipPath><clipPath id="clip-path-10" transform="translate(0 -11.4)"><path d="M249.4,240.1c5.7,1.3,15.1,2.2,22.5-3.4S321.1,198,321.1,198s-8.3,9.8-17.6,22.9a179.2,179.2,0,0,1-20,14.9c-16.1,9.8-28,7-34.1,4.3Zm0,0" fill="#fff" clip-rule="evenodd"/></clipPath><clipPath id="clip-path-11" transform="translate(0 -11.4)"><path d="M283.7,236.7c11.1-6.9,24.1-18.4,24.1-18.4L291.9,239c-5.8,3.4-19.3,11-26.8,10.4-5.1-.3-12.1-5.1-16-8.5,6,2.8,18.3,5.7,34.6-4.2Zm0,0" fill="#fff" clip-rule="evenodd"/></clipPath><clipPath id="clip-path-12" transform="translate(0 -11.4)"><path d="M265.3,250.3c9.2.8,29.3-11.9,29.3-11.9s-12.2,16.9-28,22.3c-2.9-.1-12.8-.4-15.9-4.5s-5.2-9.8-4.9-17c2.8,2.6,11.8,10.5,19.5,11.1Zm0,0" fill="#fff" clip-rule="evenodd"/></clipPath><clipPath id="clip-path-13" transform="translate(0 -11.4)"><path d="M267.1,204s-20.9,17.5-22.1,34.2c-.6,8.1,1.7,14.2,5.2,18.7s16.3,4.7,16.3,4.7c-6.4,2.1-14.6.4-20.3-1.5s-13.7-15.6-9-27.6S267.1,204,267.1,204Zm0,0" fill="#fff" clip-rule="evenodd"/></clipPath><clipPath id="clip-path-14" transform="translate(0 -11.4)"><path d="M252.8,221.2c10.4-8.2,38.1-26.6,38.1-26.6s-14.6,6.8-27.3,13.8a96.7,96.7,0,0,0-10.8,12.8Zm0,0" fill="#fff" clip-rule="evenodd"/></clipPath><clipPath id="clip-path-15" transform="translate(0 -11.4)"><path d="M274.8,234.4l-2.9,2.3c-7.4,5.6-16.8,4.7-22.5,3.4h0c5,2.2,13.8,4.5,25.6-.1a20.9,20.9,0,0,0-.2-5.6Zm0,0" fill="#fff" clip-rule="evenodd"/></clipPath><clipPath id="clip-path-16" transform="translate(0 -11.4)"><path d="M273,248.1a22,22,0,0,1-7.9,1.3c-5.1-.3-12.1-5.1-16-8.5,4.9,2.3,13.9,4.6,25.8.1a29.9,29.9,0,0,1-1.9,7.1Zm0,0" fill="#fff" clip-rule="evenodd"/></clipPath><clipPath id="clip-path-17" transform="translate(0 -11.4)"><path d="M272.5,249.2a20,20,0,0,1-7.2,1.1c-7.7-.6-16.7-8.5-19.5-11.1-.3,7.2,1.7,12.8,4.9,17a11.2,11.2,0,0,0,6.2,3.3h.9c6.7.2,11.8-4.4,14.7-10.4Zm0,0" fill="#fff" clip-rule="evenodd"/></clipPath><clipPath id="clip-path-18" transform="translate(0 -11.4)"><path d="M248.7,226.2a32.1,32.1,0,0,0-3.7,12c-.6,8.1,1.7,14.2,5.2,18.7a6.1,6.1,0,0,0,2.6,2.1c-10.8-2.1-14-9.6-14-16.3,0-9.4,4.8-14,9.9-16.5Zm0,0" fill="#fff" clip-rule="evenodd"/></clipPath><clipPath id="clip-path-19" transform="translate(0 -11.4)"><path d="M43.9,57.8C49.6,59.1,59,60,66.4,54.4s49.2-38.7,49.2-38.7S107.3,25.5,98,38.6A167.6,167.6,0,0,1,78,53.5c-16.1,9.9-28,7.1-34.1,4.3Zm0,0" fill="none" clip-rule="evenodd"/></clipPath><clipPath id="clip-path-20" transform="translate(0 -11.4)"><path d="M78.2,54.4c11.1-6.8,24.1-18.3,24.1-18.3L86.4,56.7c-5.8,3.4-19.3,11-26.8,10.5-5.1-.4-12.1-5.2-16-8.6,6.1,2.8,18.3,5.8,34.6-4.2Zm0,0" fill="none" clip-rule="evenodd"/></clipPath><clipPath id="clip-path-21" transform="translate(0 -11.4)"><path d="M59.8,68.1c9.2.7,29.3-12,29.3-12s-12.1,17-28,22.3c-2.8,0-12.8-.4-15.9-4.4S40,64.2,40.3,57c2.8,2.5,11.8,10.5,19.5,11.1Zm0,0" fill="none" clip-rule="evenodd"/></clipPath><clipPath id="clip-path-22" transform="translate(0 -11.4)"><path d="M61.6,21.8S40.7,39.3,39.5,56c-.6,8.1,1.7,14.1,5.2,18.7s16.4,4.6,16.4,4.6c-6.4,2.2-14.7.4-20.3-1.4S27,62.2,31.7,50.3,61.6,21.8,61.6,21.8Zm0,0" fill="none" clip-rule="evenodd"/></clipPath><clipPath id="clip-path-23" transform="translate(0 -11.4)"><path d="M47.4,39c10.3-8.3,38-26.7,38-26.7S70.8,19.1,58.2,26.1A84.9,84.9,0,0,0,47.4,39Zm0,0" fill="none" clip-rule="evenodd"/></clipPath><clipPath id="clip-path-24" transform="translate(0 -11.4)"><path d="M69.4,52.2l-3,2.2C59,60,49.6,59.1,43.9,57.8h0c5,2.3,13.8,4.6,25.6,0a26.1,26.1,0,0,0-.1-5.6Zm0,0" fill="none" clip-rule="evenodd"/></clipPath><clipPath id="clip-path-25" transform="translate(0 -11.4)"><path d="M67.5,65.8a22,22,0,0,1-7.9,1.4c-5.1-.4-12.1-5.2-16-8.6,4.9,2.3,13.9,4.7,25.8.2a24.2,24.2,0,0,1-1.9,7Zm0,0" fill="none" clip-rule="evenodd"/></clipPath><clipPath id="clip-path-26" transform="translate(0 -11.4)"><path d="M67,67a20,20,0,0,1-7.2,1.1c-7.7-.6-16.7-8.6-19.5-11.1C40,64.2,42,69.8,45.2,74c1.3,1.6,3.6,2.6,6.2,3.3h.9C59.1,77.6,64.1,73,67,67Zm0,0" fill="none" clip-rule="evenodd"/></clipPath><clipPath id="clip-path-27" transform="translate(0 -11.4)"><path d="M43.3,44a29.6,29.6,0,0,0-3.8,12c-.6,8.1,1.7,14.1,5.2,18.7a9.2,9.2,0,0,0,2.6,2.1c-10.7-2.2-14-9.6-14-16.3,0-9.4,4.8-14.1,10-16.5Zm0,0" fill="none" clip-rule="evenodd"/></clipPath><clipPath id="clip-path-28" transform="translate(0 -11.4)"><path d="M243.3,68.2c5.7,1.3,15.1,2.1,22.5-3.4s49.1-38.7,49.1-38.7-8.2,9.8-17.6,22.9a179.2,179.2,0,0,1-20,14.9c-16,9.8-27.9,7-34,4.3Zm0,0" fill="#fff" clip-rule="evenodd"/></clipPath><clipPath id="clip-path-29" transform="translate(0 -11.4)"><path d="M277.5,64.8c11.2-6.9,24.2-18.4,24.2-18.4s-8.5,11.1-16,20.7c-5.8,3.4-19.2,11-26.7,10.4-5.2-.3-12.1-5.1-16-8.5,6,2.8,18.3,5.7,34.5-4.2Zm0,0" fill="#fff" clip-rule="evenodd"/></clipPath><clipPath id="clip-path-30" transform="translate(0 -11.4)"><path d="M259.2,78.4c9.2.8,29.2-11.9,29.2-11.9s-12.1,16.9-27.9,22.3c-2.9-.1-12.8-.4-15.9-4.5s-5.2-9.8-4.9-17c2.7,2.6,11.8,10.5,19.5,11.1Zm0,0" fill="#fff" clip-rule="evenodd"/></clipPath><clipPath id="clip-path-31" transform="translate(0 -11.4)"><path d="M261,32.1s-21,17.5-22.1,34.2c-.6,8.1,1.6,14.1,5.1,18.7s16.4,4.7,16.4,4.7c-6.4,2.1-14.6.3-20.3-1.5S226.4,72.5,231,60.6s30-28.5,30-28.5Zm0,0" fill="#fff" clip-rule="evenodd"/></clipPath><clipPath id="clip-path-32" transform="translate(0 -11.4)"><path d="M246.7,49.3c10.3-8.2,38.1-26.6,38.1-26.6s-14.6,6.8-27.3,13.8a89.7,89.7,0,0,0-10.8,12.8Zm0,0" fill="#fff" clip-rule="evenodd"/></clipPath><clipPath id="clip-path-33" transform="translate(0 -11.4)"><path d="M268.7,62.5l-2.9,2.3c-7.4,5.5-16.8,4.7-22.5,3.4h0c5,2.2,13.8,4.5,25.6-.1a26,26,0,0,0-.2-5.6Zm0,0" fill="#fff" clip-rule="evenodd"/></clipPath><clipPath id="clip-path-34" transform="translate(0 -11.4)"><path d="M266.9,76.2a22,22,0,0,1-7.9,1.3c-5.2-.3-12.1-5.1-16-8.5,4.9,2.2,13.9,4.6,25.8.1a35.5,35.5,0,0,1-1.9,7.1Zm0,0" fill="#fff" clip-rule="evenodd"/></clipPath><clipPath id="clip-path-35" transform="translate(0 -11.4)"><path d="M266.4,77.3a20,20,0,0,1-7.2,1.1c-7.7-.6-16.8-8.5-19.5-11.1-.3,7.2,1.6,12.8,4.9,17,1.2,1.6,3.6,2.7,6.2,3.3h.9c6.7.2,11.8-4.4,14.7-10.4Zm0,0" fill="#fff" clip-rule="evenodd"/></clipPath><clipPath id="clip-path-36" transform="translate(0 -11.4)"><path d="M242.6,54.3a32.1,32.1,0,0,0-3.7,12c-.6,8.1,1.6,14.1,5.1,18.7a8.2,8.2,0,0,0,2.7,2.1c-10.8-2.1-14.1-9.6-14.1-16.3,0-9.4,4.9-14,10-16.5Zm0,0" fill="#fff" clip-rule="evenodd"/></clipPath></defs><title>Logo_2020</title><path d="M64.7,237.7a6.8,6.8,0,0,1,.1-9.3,6.4,6.4,0,0,1,4.5-1.7,6.7,6.7,0,0,1,5.5,2.8l2.9-3.3a11.1,11.1,0,0,0-8.6-3.9,10.6,10.6,0,0,0-7.8,3.1,11,11,0,0,0-.1,15.4,10.9,10.9,0,0,0,8,3.1,11.2,11.2,0,0,0,8.4-4l-3-3.1a7.1,7.1,0,0,1-5.7,2.7,5.6,5.6,0,0,1-4.2-1.8Zm19.6-3.4V222.7H79.7v11.7c0,3,.8,5.4,2.5,7a8.9,8.9,0,0,0,6.4,2.4,9.2,9.2,0,0,0,6.5-2.4,9.5,9.5,0,0,0,2.5-7V222.7H92.9v11.6a5.9,5.9,0,0,1-1.2,3.9,3.6,3.6,0,0,1-3.1,1.5,3.7,3.7,0,0,1-3.1-1.5,5.9,5.9,0,0,1-1.2-3.9Z" transform="translate(0 -11.4)" fill="#9d2320"/><path d="M116.8,226.7v-4.1H100.3v4.1h5.9v16.8h4.7V226.7Zm7,10.9a6.8,6.8,0,0,1,.1-9.3,6.4,6.4,0,0,1,4.5-1.7,6.7,6.7,0,0,1,5.5,2.8l2.9-3.3a11.1,11.1,0,0,0-8.6-3.9,10.6,10.6,0,0,0-7.8,3.1,11,11,0,0,0-.1,15.4,10.9,10.9,0,0,0,8,3.1,11.2,11.2,0,0,0,8.4-4l-3-3.1a7.1,7.1,0,0,1-5.6,2.7,5.8,5.8,0,0,1-4.3-1.8Z" transform="translate(0 -11.4)" fill="#9d2320"/><g clip-path="url(#clip-path)"><path d="M12.8,189.4H81.2v43.3H12.8Zm0,0" transform="translate(0 -11.4)" fill="#e38a85" fill-rule="evenodd"/></g><g clip-path="url(#clip-path-2)"><path d="M5.8,207.3H62.2v30.8H5.8Zm0,0" transform="translate(0 -11.4)" fill="#d85d56" fill-rule="evenodd"/></g><g clip-path="url(#clip-path-3)"><path d="M9.4,227.1H56.5v22.4H9.4Zm0,0" transform="translate(0 -11.4)" fill="#c62026" fill-rule="evenodd"/></g><g clip-path="url(#clip-path-4)"><path d="M0,195H30.9v56.3H0Zm0,0" transform="translate(0 -11.4)" fill="#af1f24" fill-rule="evenodd"/></g><g clip-path="url(#clip-path-5)"><path d="M15.9,186.2H53.1v26.5H15.9Zm0,0" transform="translate(0 -11.4)" fill="#e38a85" fill-rule="evenodd"/></g><g clip-path="url(#clip-path-6)"><path d="M12.8,223.4H38.4v9.3H12.8Zm0,0" transform="translate(0 -11.4)" fill="#edb9b7" fill-rule="evenodd"/></g><g clip-path="url(#clip-path-7)"><path d="M12.4,229.4H38.2v9.7H12.4Zm0,0" transform="translate(0 -11.4)" fill="#e38a85" fill-rule="evenodd"/></g><g clip-path="url(#clip-path-8)"><path d="M9.4,227.8H35.9v20.7H9.4Zm0,0" transform="translate(0 -11.4)" fill="#d85d56" fill-rule="evenodd"/></g><g clip-path="url(#clip-path-9)"><path d="M2.8,215.7H17.6V248H2.8Zm0,0" transform="translate(0 -11.4)" fill="#d85d56" fill-rule="evenodd"/></g><path d="M233.7,287.3a7,7,0,0,1-1.9-5,6.5,6.5,0,0,1,2-5,7.2,7.2,0,0,1,4.9-1.8,7.5,7.5,0,0,1,5.9,2.9l3.1-3.5a12,12,0,0,0-9.3-4.2,11.5,11.5,0,0,0-8.3,3.3,12,12,0,0,0-.1,16.6,11.6,11.6,0,0,0,8.5,3.3,11.8,11.8,0,0,0,9-4.3l-3.2-3.3a7.3,7.3,0,0,1-6,2.9,6.2,6.2,0,0,1-4.6-1.9Zm21.1-3.7V271.2h-5v12.5q0,4.9,2.7,7.5a10.5,10.5,0,0,0,13.8,0q2.7-2.6,2.7-7.5V271.2h-5v12.4a6,6,0,0,1-1.3,4.2,3.8,3.8,0,0,1-3.3,1.6,4.1,4.1,0,0,1-3.4-1.6,6.6,6.6,0,0,1-1.2-4.2Z" transform="translate(0 -11.4)" fill="#fff"/><path d="M289.4,275.5v-4.3H271.7v4.3h6.4v18.1h5V275.5Zm7.5,11.8a7,7,0,0,1-1.8-5,6.2,6.2,0,0,1,2-5,6.8,6.8,0,0,1,4.8-1.8,7.5,7.5,0,0,1,5.9,2.9l3.1-3.5a11.9,11.9,0,0,0-9.2-4.2,11.7,11.7,0,0,0-8.4,3.3,12,12,0,0,0-.1,16.6,11.8,11.8,0,0,0,8.6,3.3,12.1,12.1,0,0,0,9-4.3l-3.2-3.3a7.6,7.6,0,0,1-6.1,2.9,6.2,6.2,0,0,1-4.6-1.9Z" transform="translate(0 -11.4)" fill="#fff"/><path d="M249.4,240.1c5.7,1.3,15.1,2.2,22.5-3.4S321.1,198,321.1,198s-8.3,9.8-17.6,22.9a179.2,179.2,0,0,1-20,14.9c-16.1,9.8-28,7-34.1,4.3Zm0,0" transform="translate(0 -11.4)" fill="#fff" fill-rule="evenodd"/><g clip-path="url(#clip-path-10)"><path d="M248.5,197.1h73.4v46.5H248.5Zm0,0" transform="translate(0 -11.4)" fill="#fff" fill-rule="evenodd"/></g><path d="M283.7,236.7c11.1-6.9,24.1-18.4,24.1-18.4L291.9,239c-5.8,3.4-19.3,11-26.8,10.4-5.1-.3-12.1-5.1-16-8.5,6,2.8,18.3,5.7,34.6-4.2Zm0,0" transform="translate(0 -11.4)" fill="#fff" fill-rule="evenodd"/><g clip-path="url(#clip-path-11)"><path d="M248.2,217.4h60.5v33H248.2Zm0,0" transform="translate(0 -11.4)" fill="#fff" fill-rule="evenodd"/></g><path d="M265.3,250.3c9.2.8,29.3-11.9,29.3-11.9s-12.2,16.9-28,22.3c-2.9-.1-12.8-.4-15.9-4.5s-5.2-9.8-4.9-17c2.8,2.6,11.8,10.5,19.5,11.1Zm0,0" transform="translate(0 -11.4)" fill="#fff" fill-rule="evenodd"/><g clip-path="url(#clip-path-12)"><path d="M244.9,237.5h50.5v24.1H244.9Zm0,0" transform="translate(0 -11.4)" fill="#fff" fill-rule="evenodd"/></g><path d="M267.1,204s-20.9,17.5-22.1,34.2c-.6,8.1,1.7,14.2,5.2,18.7s16.3,4.7,16.3,4.7c-6.4,2.1-14.6.4-20.3-1.5s-13.7-15.6-9-27.6S267.1,204,267.1,204Zm0,0" transform="translate(0 -11.4)" fill="#fff" fill-rule="evenodd"/><g clip-path="url(#clip-path-13)"><path d="M234.8,203.1H268v60.4H234.8Zm0,0" transform="translate(0 -11.4)" fill="#fff" fill-rule="evenodd"/></g><path d="M252.8,221.2c10.4-8.2,38.1-26.6,38.1-26.6s-14.6,6.8-27.3,13.8a96.7,96.7,0,0,0-10.8,12.8Zm0,0" transform="translate(0 -11.4)" fill="#fff" fill-rule="evenodd"/><g clip-path="url(#clip-path-14)"><path d="M252,193.7h39.8v28.4H252Zm0,0" transform="translate(0 -11.4)" fill="#fff" fill-rule="evenodd"/></g><path d="M274.8,234.4l-2.9,2.3c-7.4,5.6-16.8,4.7-22.5,3.4h0c5,2.2,13.8,4.5,25.6-.1a20.9,20.9,0,0,0-.2-5.6Zm0,0" transform="translate(0 -11.4)" fill="#fff" fill-rule="evenodd"/><g clip-path="url(#clip-path-15)"><path d="M248.5,233.5H276v10.1H248.5Zm0,0" transform="translate(0 -11.4)" fill="#fff" fill-rule="evenodd"/></g><path d="M273,248.1a22,22,0,0,1-7.9,1.3c-5.1-.3-12.1-5.1-16-8.5,4.9,2.3,13.9,4.6,25.8.1a29.9,29.9,0,0,1-1.9,7.1Zm0,0" transform="translate(0 -11.4)" fill="#fff" fill-rule="evenodd"/><g clip-path="url(#clip-path-16)"><path d="M248.2,240h27.6v10.4H248.2Zm0,0" transform="translate(0 -11.4)" fill="#fff" fill-rule="evenodd"/></g><path d="M272.5,249.2a20,20,0,0,1-7.2,1.1c-7.7-.6-16.7-8.5-19.5-11.1-.3,7.2,1.7,12.8,4.9,17a11.2,11.2,0,0,0,6.2,3.3h.9c6.7.2,11.8-4.4,14.7-10.4Zm0,0" transform="translate(0 -11.4)" fill="#fff" fill-rule="evenodd"/><g clip-path="url(#clip-path-17)"><path d="M244.9,238.3h28.5v22.2H244.9Zm0,0" transform="translate(0 -11.4)" fill="#fff" fill-rule="evenodd"/></g><path d="M248.7,226.2a32.1,32.1,0,0,0-3.7,12c-.6,8.1,1.7,14.2,5.2,18.7a6.1,6.1,0,0,0,2.6,2.1c-10.8-2.1-14-9.6-14-16.3,0-9.4,4.8-14,9.9-16.5Zm0,0" transform="translate(0 -11.4)" fill="#fff" fill-rule="evenodd"/><g clip-path="url(#clip-path-18)"><path d="M237.9,225.3h15.8v34.6H237.9Zm0,0" transform="translate(0 -11.4)" fill="#fff" fill-rule="evenodd"/></g><path d="M24.5,105a6.5,6.5,0,0,1-1.9-5,6,6,0,0,1,2-4.9,6.5,6.5,0,0,1,4.8-1.9,7.2,7.2,0,0,1,5.9,3l3.1-3.6a11.8,11.8,0,0,0-9.2-4.2,11.6,11.6,0,0,0-11.8,11.7,10.6,10.6,0,0,0,3.4,8.2,11.5,11.5,0,0,0,8.5,3.3,11.7,11.7,0,0,0,9-4.3L35.1,104a7.3,7.3,0,0,1-6,2.9,6,6,0,0,1-4.6-1.9Zm21-3.7V89h-5v12.5a10.1,10.1,0,0,0,2.7,7.5,9.7,9.7,0,0,0,6.9,2.6A9.7,9.7,0,0,0,57,109a10.1,10.1,0,0,0,2.7-7.5V89h-5v12.3a7.1,7.1,0,0,1-1.2,4.3,4.1,4.1,0,0,1-3.4,1.5,4,4,0,0,1-3.3-1.5,6.5,6.5,0,0,1-1.3-4.3Z" transform="translate(0 -11.4)" fill="#9d2320"/><path d="M80.2,93.3V89H62.5v4.3h6.3v18.1h5.1V93.3ZM87.7,105a6.5,6.5,0,0,1-1.9-5,6.3,6.3,0,0,1,2-4.9,6.6,6.6,0,0,1,4.8-1.9,7.1,7.1,0,0,1,5.9,3l3.1-3.6a11.6,11.6,0,0,0-9.2-4.2A11.7,11.7,0,0,0,84,108.3a11.6,11.6,0,0,0,8.5,3.3,11.4,11.4,0,0,0,9-4.3L98.3,104a7.2,7.2,0,0,1-6,2.9,6.2,6.2,0,0,1-4.6-1.9Z" transform="translate(0 -11.4)" fill="#9d2320"/><g clip-path="url(#clip-path-19)"><path d="M43.1,14.9h73.4V61.3H43.1Zm0,0" transform="translate(0 -11.4)" fill="#e38a85" fill-rule="evenodd"/></g><g clip-path="url(#clip-path-20)"><path d="M42.7,35.2h60.5V68.1H42.7Zm0,0" transform="translate(0 -11.4)" fill="#d85d56" fill-rule="evenodd"/></g><g clip-path="url(#clip-path-21)"><path d="M39.4,55.3H90v24H39.4Zm0,0" transform="translate(0 -11.4)" fill="#c62026" fill-rule="evenodd"/></g><g clip-path="url(#clip-path-22)"><path d="M29.4,20.9H62.5V81.2H29.4Zm0,0" transform="translate(0 -11.4)" fill="#af1f24" fill-rule="evenodd"/></g><g clip-path="url(#clip-path-23)"><path d="M46.5,11.4H86.3V39.9H46.5Zm0,0" transform="translate(0 -11.4)" fill="#e38a85" fill-rule="evenodd"/></g><g clip-path="url(#clip-path-24)"><path d="M43.1,51.3H70.5v10H43.1Zm0,0" transform="translate(0 -11.4)" fill="#edb9b7" fill-rule="evenodd"/></g><g clip-path="url(#clip-path-25)"><path d="M42.7,57.7H70.3V68.1H42.7Zm0,0" transform="translate(0 -11.4)" fill="#e38a85" fill-rule="evenodd"/></g><g clip-path="url(#clip-path-26)"><path d="M39.4,56.1H67.9V78.2H39.4Zm0,0" transform="translate(0 -11.4)" fill="#d85d56" fill-rule="evenodd"/></g><g clip-path="url(#clip-path-27)"><path d="M32.4,43.1H48.2V77.7H32.4Zm0,0" transform="translate(0 -11.4)" fill="#d85d56" fill-rule="evenodd"/></g><path d="M112.1,86c0-.7-.6-1.2-1.6-1.2a6.8,6.8,0,0,0-3.9,1.8l-1.3-2.7a9.8,9.8,0,0,1,5.8-2.1c2.8,0,4.9,1.5,4.9,3.7s-1.2,3.1-2.8,4.7l-2.8,2.9h6V96H105.7V93.6l5.1-5.3A4.6,4.6,0,0,0,112.1,86Z" transform="translate(0 -11.4)" fill="#9d2320"/><path d="M128.8,89c0,4.6-2,7.1-5.5,7.1s-5.5-2.5-5.5-7.1,1.9-7.1,5.5-7.1S128.8,84.4,128.8,89Zm-7.5,0c0,3.2.6,4.5,2,4.5s2-1.3,2-4.5-.6-4.6-2-4.6S121.3,85.7,121.3,89Z" transform="translate(0 -11.4)" fill="#9d2320"/><path d="M223.8,115.4a7,7,0,0,1-1.9-5,6.5,6.5,0,0,1,2-5,7.5,7.5,0,0,1,10.8,1.1l3.1-3.5a12,12,0,0,0-9.3-4.2,11.5,11.5,0,0,0-8.3,3.3,11,11,0,0,0-3.4,8.3,11.2,11.2,0,0,0,3.3,8.3,12,12,0,0,0,17.5-1l-3.2-3.3a7.3,7.3,0,0,1-6,2.9,6.6,6.6,0,0,1-4.6-1.9Zm21.1-3.7V99.3h-5v12.5c0,3.3.9,5.7,2.7,7.5a10.5,10.5,0,0,0,13.8,0q2.7-2.5,2.7-7.5V99.3h-5v12.4a6.6,6.6,0,0,1-1.2,4.2,4.4,4.4,0,0,1-6.8,0,6.6,6.6,0,0,1-1.2-4.2Z" transform="translate(0 -11.4)" fill="#fff"/><path d="M279.6,103.6V99.3H261.9v4.3h6.3v18.1h5V103.6Zm7.5,11.8a6.6,6.6,0,0,1-1.9-5,6.2,6.2,0,0,1,2-5,6.8,6.8,0,0,1,4.8-1.8,7.2,7.2,0,0,1,5.9,2.9L301,103a11.9,11.9,0,0,0-9.2-4.2,11.7,11.7,0,0,0-8.4,3.3,11,11,0,0,0-3.4,8.3,10.9,10.9,0,0,0,3.4,8.3,11.5,11.5,0,0,0,8.5,3.3,12.1,12.1,0,0,0,9-4.3l-3.2-3.3a7.6,7.6,0,0,1-6.1,2.9,6.2,6.2,0,0,1-4.5-1.9Z" transform="translate(0 -11.4)" fill="#fff"/><path d="M243.3,68.2c5.7,1.3,15.1,2.1,22.5-3.4s49.1-38.7,49.1-38.7-8.2,9.8-17.6,22.9a179.2,179.2,0,0,1-20,14.9c-16,9.8-27.9,7-34,4.3Zm0,0" transform="translate(0 -11.4)" fill="#fff" fill-rule="evenodd"/><g clip-path="url(#clip-path-28)"><path d="M242.4,25.2h73.4V71.7H242.4Zm0,0" transform="translate(0 -11.4)" fill="#fff" fill-rule="evenodd"/></g><path d="M277.5,64.8c11.2-6.9,24.2-18.4,24.2-18.4s-8.5,11.1-16,20.7c-5.8,3.4-19.2,11-26.7,10.4-5.2-.3-12.1-5.1-16-8.5,6,2.8,18.3,5.7,34.5-4.2Zm0,0" transform="translate(0 -11.4)" fill="#fff" fill-rule="evenodd"/><g clip-path="url(#clip-path-29)"><path d="M242.1,45.5h60.5V78.4H242.1Zm0,0" transform="translate(0 -11.4)" fill="#fff" fill-rule="evenodd"/></g><path d="M259.2,78.4c9.2.8,29.2-11.9,29.2-11.9s-12.1,16.9-27.9,22.3c-2.9-.1-12.8-.4-15.9-4.5s-5.2-9.8-4.9-17c2.7,2.6,11.8,10.5,19.5,11.1Zm0,0" transform="translate(0 -11.4)" fill="#fff" fill-rule="evenodd"/><g clip-path="url(#clip-path-30)"><path d="M238.8,65.6h50.5V89.7H238.8Zm0,0" transform="translate(0 -11.4)" fill="#fff" fill-rule="evenodd"/></g><path d="M261,32.1s-21,17.5-22.1,34.2c-.6,8.1,1.6,14.1,5.1,18.7s16.4,4.7,16.4,4.7c-6.4,2.1-14.6.3-20.3-1.5S226.4,72.5,231,60.6s30-28.5,30-28.5Zm0,0" transform="translate(0 -11.4)" fill="#fff" fill-rule="evenodd"/><g clip-path="url(#clip-path-31)"><path d="M228.7,31.2h33.1V91.5H228.7Zm0,0" transform="translate(0 -11.4)" fill="#fff" fill-rule="evenodd"/></g><path d="M246.7,49.3c10.3-8.2,38.1-26.6,38.1-26.6s-14.6,6.8-27.3,13.8a89.7,89.7,0,0,0-10.8,12.8Zm0,0" transform="translate(0 -11.4)" fill="#fff" fill-rule="evenodd"/><g clip-path="url(#clip-path-32)"><path d="M245.8,21.8h39.9V50.2H245.8Zm0,0" transform="translate(0 -11.4)" fill="#fff" fill-rule="evenodd"/></g><path d="M268.7,62.5l-2.9,2.3c-7.4,5.5-16.8,4.7-22.5,3.4h0c5,2.2,13.8,4.5,25.6-.1a26,26,0,0,0-.2-5.6Zm0,0" transform="translate(0 -11.4)" fill="#fff" fill-rule="evenodd"/><g clip-path="url(#clip-path-33)"><path d="M242.4,61.6h27.5V71.7H242.4Zm0,0" transform="translate(0 -11.4)" fill="#fff" fill-rule="evenodd"/></g><path d="M266.9,76.2a22,22,0,0,1-7.9,1.3c-5.2-.3-12.1-5.1-16-8.5,4.9,2.2,13.9,4.6,25.8.1a35.5,35.5,0,0,1-1.9,7.1Zm0,0" transform="translate(0 -11.4)" fill="#fff" fill-rule="evenodd"/><g clip-path="url(#clip-path-34)"><path d="M242.1,68.1h27.5V78.4H242.1Zm0,0" transform="translate(0 -11.4)" fill="#fff" fill-rule="evenodd"/></g><path d="M266.4,77.3a20,20,0,0,1-7.2,1.1c-7.7-.6-16.8-8.5-19.5-11.1-.3,7.2,1.6,12.8,4.9,17,1.2,1.6,3.6,2.7,6.2,3.3h.9c6.7.2,11.8-4.4,14.7-10.4Zm0,0" transform="translate(0 -11.4)" fill="#fff" fill-rule="evenodd"/><g clip-path="url(#clip-path-35)"><path d="M238.8,66.4h28.4V88.6H238.8Zm0,0" transform="translate(0 -11.4)" fill="#fff" fill-rule="evenodd"/></g><path d="M242.6,54.3a32.1,32.1,0,0,0-3.7,12c-.6,8.1,1.6,14.1,5.1,18.7a8.2,8.2,0,0,0,2.7,2.1c-10.8-2.1-14.1-9.6-14.1-16.3,0-9.4,4.9-14,10-16.5Zm0,0" transform="translate(0 -11.4)" fill="#fff" fill-rule="evenodd"/><g clip-path="url(#clip-path-36)"><path d="M231.7,53.4h15.9V88H231.7Zm0,0" transform="translate(0 -11.4)" fill="#fff" fill-rule="evenodd"/></g><path d="M311.5,96.4c0-.8-.6-1.2-1.6-1.2a6.4,6.4,0,0,0-3.9,1.7l-1.4-2.7a10.1,10.1,0,0,1,5.8-2.1c2.9,0,4.9,1.5,4.9,3.7s-1.2,3.1-2.7,4.7l-2.9,2.9h6v2.9H305v-2.4l5.1-5.2A4.2,4.2,0,0,0,311.5,96.4Z" transform="translate(0 -11.4)" fill="#fff"/><path d="M328.1,99.3c0,4.6-2,7.1-5.5,7.1s-5.5-2.5-5.5-7.1,2-7.1,5.5-7.1S328.1,94.7,328.1,99.3Zm-7.5,0c0,3.2.6,4.6,2,4.6s2-1.4,2-4.6-.6-4.5-2-4.5S320.6,96.1,320.6,99.3Z" transform="translate(0 -11.4)" fill="#fff"/></svg>